<?xml version="1.0" encoding="UTF-8"?><svg id="Calque_1" xmlns="http://www.w3.org/2000/svg" xmlns:xlink="http://www.w3.org/1999/xlink" viewBox="0 0 145.87 135.83"><defs><style>.cls-1{clip-path:url(#clippath);}.cls-2{fill:none;}.cls-3{fill:orange;}</style><clipPath id="clippath"><rect class="cls-2" x="37.72" y="24.42" width="70.43" height="86.99"/></clipPath></defs><g id="Groupe_1558" transform="translate(0 0)"><g class="cls-1"><g id="Groupe_1557"><path id="Tracé_1454" class="cls-3" d="M97.32,25.51c-9.42-.14-18.82-.84-28.24-1.01-5.29-.1-10.6-.17-15.87,.19-2.49,.17-4.97,.44-7.43,.83-2.01,.51-4.06,.87-6.13,1.06-1.09,.02-1.96,.92-1.94,2.01,0,.16,.02,.31,.06,.46,3.21,15.12,3.54,30.66,3.64,46.06,.05,7.64,.02,15.28,.22,22.92,.08,3.16-.45,7.45,1.14,10.32,1.44,2.61,4.48,3.22,7.22,3.03,3.8-.27,7.58-.98,11.39-1.31,4.02-.35,8.05-.57,12.1-.66,8.08-.18,16.16,.19,24.19,1.09,2.76,.31,7.01,1.71,9.32-.55,.92-1.05,1.34-2.44,1.16-3.82-.09-2.03-.28-4.05-.41-6.08-.52-8.15-.97-16.3-1.51-24.45-.59-8.98-1.3-17.97-2.32-26.91-.51-4.43-1.1-8.85-1.77-13.27-.5-3.23-.92-6.96-3.44-9.33-1.83-1.71-4.59,1.03-2.76,2.76,1.99,1.87,2.11,5.47,2.49,7.99,.56,3.7,1.06,7.4,1.49,11.11,.85,7.33,1.49,14.69,2.03,22.05,.54,7.36,.96,14.75,1.4,22.13,.22,3.66,.45,7.31,.69,10.97,.06,.89,.12,1.77,.18,2.66,.05,.8,.3,1.28-.45,1.52-.78,.07-1.58,0-2.34-.2-1-.13-2-.26-3.01-.38-14.69-1.71-29.52-1.63-44.19,.25-2.07,.27-7.12,1.8-8.19-.86-.38-1.48-.51-3.01-.4-4.54-.06-1.76-.12-3.52-.16-5.28-.16-7.05-.13-14.11-.18-21.16-.11-15.76-.5-31.64-3.78-47.11l-1.87,2.47c1.81-.12,3.61-.41,5.36-.88,2.71-.51,5.44-.84,8.19-1.01,5.28-.35,10.59-.29,15.87-.19,9.42,.17,18.82,.87,28.24,1.01,1.08-.04,1.91-.95,1.87-2.03-.04-1.02-.85-1.83-1.87-1.87"/><path id="Tracé_1455" class="cls-3" d="M58.92,57.04c8.28-1.14,16.64-1.62,25-1.41,1.08-.04,1.91-.95,1.87-2.03-.04-1.02-.85-1.83-1.87-1.87-8.71-.18-17.42,.34-26.04,1.56-1.03,.29-1.64,1.36-1.36,2.4,.31,1.02,1.36,1.62,2.4,1.36"/><path id="Tracé_1456" class="cls-3" d="M61.84,66.52s-.03-.07-.05-.11c-.45-.75-1.35-1.12-2.2-.9-.61,.11-1.13,.51-1.4,1.07-.43,.77-.3,1.73,.3,2.36,.83,.69,1.91,.99,2.98,.85,1.27,.03,2.53,.06,3.8,.08,2.44,.03,4.89,.03,7.33,0,4.98-.06,9.95-.25,14.92-.58,2.49-.16,2.51-4.05,0-3.9-4.52,.29-9.04,.47-13.56,.55-2.17,.04-4.34,.05-6.52,.04-1.09,0-2.17-.02-3.26-.04-.63-.01-1.27-.02-1.9-.04-.47-.01-1.71-.39-1.04,.27l.3,2.36s.05-.1,.07-.14l-1.16,.89,.17-.02-2.21-.89s.03,.07,.05,.11c.55,.92,1.74,1.23,2.67,.7,.91-.56,1.21-1.73,.7-2.67"/><path id="Tracé_1457" class="cls-3" d="M60.63,85.52c5.6,.11,11.2,.26,16.79,.26,2.81,0,5.6-.05,8.39-.19,2.42-.12,5.39,.08,7.54-1.2,.92-.56,1.2-1.76,.64-2.68-.55-.89-1.7-1.19-2.61-.68-1.08,.42-2.24,.6-3.4,.53-1.34,.1-2.69,.16-4.03,.21-2.59,.1-5.18,.12-7.78,.11-5.18-.02-10.37-.16-15.55-.26-1.08,.04-1.91,.95-1.87,2.03,.04,1.02,.85,1.83,1.87,1.87"/></g></g></g></svg>